<svg xmlns="http://www.w3.org/2000/svg" xmlns:xlink="http://www.w3.org/1999/xlink"
    viewBox="3.368502 151.800816 340.233138 57.858775">
    <defs>
        <clipPath id="clip1">
            <path
                d="M 8.046875 199.207031 L 182.804688 199.207031 L 182.804688 209.535156 L 8.046875 209.535156 Z M 8.046875 199.207031" />
        </clipPath>
        <clipPath id="clip2">
            <path
                d="M 194.894531 152.109375 L 343.601562 152.109375 L 343.601562 162.4375 L 194.894531 162.4375 Z M 194.894531 152.109375" />
        </clipPath>
    </defs>
    <g clip-path="url(#clip1)">
        <path fill="#000000"
            d="M 8.046875 199.207031 L 182.804688 199.207031 L 182.804688 209.535156 L 8.046875 209.535156 Z M 8.046875 199.207031" />
    </g>
    <g clip-path="url(#clip2)">
        <path fill="#000000"
            d="M 194.894531 152.109375 L 343.589844 152.109375 L 343.589844 162.4375 L 194.894531 162.4375 Z M 194.894531 152.109375" />
    </g>
    <g fill="#000000">
        <g transform="translate(3.368502, 193.785191)">
            <path
                d="M 5.03125 0 L 5.03125 -41.984375 L 14.578125 -41.984375 L 14.578125 -8.9375 L 32.9375 -8.9375 L 32.9375 0 Z M 5.03125 0" />
        </g>
    </g>
    <g fill="#000000">
        <g transform="translate(50.333174, 193.785191)">
            <path
                d="M 22.1875 0.84375 C 18.550781 0.84375 15.421875 0.113281 12.796875 -1.34375 C 10.179688 -2.8125 8.164062 -4.894531 6.75 -7.59375 C 5.332031 -10.289062 4.625 -13.519531 4.625 -17.28125 L 4.625 -41.984375 L 14.15625 -41.984375 L 14.15625 -17.9375 C 14.15625 -11.457031 16.832031 -8.21875 22.1875 -8.21875 C 27.550781 -8.21875 30.234375 -11.457031 30.234375 -17.9375 L 30.234375 -41.984375 L 39.765625 -41.984375 L 39.765625 -17.28125 C 39.765625 -13.519531 39.054688 -10.289062 37.640625 -7.59375 C 36.222656 -4.894531 34.203125 -2.8125 31.578125 -1.34375 C 28.960938 0.113281 25.832031 0.84375 22.1875 0.84375 Z M 22.1875 0.84375" />
        </g>
    </g>
    <g fill="#000000">
        <g transform="translate(107.133998, 193.785191)">
            <path
                d="M 5.03125 0 L 5.03125 -41.984375 L 31.375 -41.984375 L 31.375 -33.34375 L 14.578125 -33.34375 L 14.578125 -22.859375 L 29.8125 -22.859375 L 29.8125 -14.453125 L 14.578125 -14.453125 L 14.578125 0 Z M 5.03125 0" />
        </g>
    </g>
    <g fill="#000000">
        <g transform="translate(153.558887, 193.785191)">
            <path
                d="M 15.109375 0 L 15.109375 -33.046875 L 1.796875 -33.046875 L 1.796875 -41.984375 L 37.96875 -41.984375 L 37.96875 -33.046875 L 24.65625 -33.046875 L 24.65625 0 Z M 15.109375 0" />
        </g>
    </g>
    <g fill="#000000">
        <g transform="translate(190.349992, 208.659596)">
            <path
                d="M 5.03125 0 L 5.03125 -41.984375 L 13.140625 -41.984375 L 31.671875 -16.4375 L 31.671875 -41.984375 L 41.15625 -41.984375 L 41.15625 0 L 33.046875 0 L 14.515625 -25.734375 L 14.515625 0 Z M 5.03125 0" />
        </g>
    </g>
    <g fill="#000000">
        <g transform="translate(248.950112, 208.659596)">
            <path
                d="M 5.03125 0 L 5.03125 -41.984375 L 23.8125 -41.984375 C 28.09375 -41.984375 31.492188 -40.960938 34.015625 -38.921875 C 36.535156 -36.890625 37.796875 -34.15625 37.796875 -30.71875 C 37.796875 -28.75 37.351562 -26.960938 36.46875 -25.359375 C 35.59375 -23.765625 34.351562 -22.507812 32.75 -21.59375 C 34.75 -20.71875 36.296875 -19.414062 37.390625 -17.6875 C 38.492188 -15.96875 39.046875 -13.988281 39.046875 -11.75 C 39.046875 -9.394531 38.445312 -7.335938 37.25 -5.578125 C 36.050781 -3.816406 34.378906 -2.445312 32.234375 -1.46875 C 30.097656 -0.488281 27.613281 0 24.78125 0 Z M 14.453125 -7.5625 L 23.328125 -7.5625 C 25.210938 -7.5625 26.671875 -8 27.703125 -8.875 C 28.742188 -9.757812 29.265625 -11 29.265625 -12.59375 C 29.265625 -14.195312 28.742188 -15.4375 27.703125 -16.3125 C 26.671875 -17.195312 25.210938 -17.640625 23.328125 -17.640625 L 14.453125 -17.640625 Z M 14.453125 -24.890625 L 22.375 -24.890625 C 24.21875 -24.890625 25.628906 -25.304688 26.609375 -26.140625 C 27.585938 -26.984375 28.078125 -28.164062 28.078125 -29.6875 C 28.078125 -31.207031 27.585938 -32.378906 26.609375 -33.203125 C 25.628906 -34.023438 24.21875 -34.4375 22.375 -34.4375 L 14.453125 -34.4375 Z M 14.453125 -24.890625" />
        </g>
    </g>
    <g fill="#000000">
        <g transform="translate(302.692136, 208.659596)">
            <path
                d="M 5.03125 0 L 5.03125 -41.984375 L 13.140625 -41.984375 L 31.671875 -16.4375 L 31.671875 -41.984375 L 41.15625 -41.984375 L 41.15625 0 L 33.046875 0 L 14.515625 -25.734375 L 14.515625 0 Z M 5.03125 0" />
        </g>
    </g>
</svg>